<svg width="24" height="36" viewBox="0 0 24 36" fill="none" xmlns="http://www.w3.org/2000/svg">
<path d="M23.0829 13.8803C23.0175 13.7648 22.9226 13.6688 22.808 13.602C22.6934 13.5352 22.5631 13.5 22.4304 13.5H12.6054L14.2526 0.914452C14.2702 0.746014 14.2307 0.576529 14.1404 0.433285C14.05 0.290041 13.9141 0.181374 13.7544 0.124781C13.5948 0.068187 13.4208 0.0669597 13.2604 0.121296C13.1 0.175633 12.9625 0.282372 12.8701 0.424327L0.921887 21.3572C0.852017 21.4708 0.813723 21.6011 0.810953 21.7344C0.808183 21.8678 0.841037 21.9995 0.906128 22.116C0.971219 22.2324 1.06619 22.3294 1.18125 22.3969C1.29631 22.4644 1.4273 22.5 1.5607 22.5H11.2389L9.93351 35.1045C9.92068 35.2724 9.96436 35.4397 10.0576 35.5799C10.1508 35.72 10.2883 35.825 10.448 35.8781C10.6078 35.9311 10.7807 35.9292 10.9393 35.8727C11.0978 35.8161 11.2329 35.7081 11.3231 35.5659L23.0739 14.6353C23.142 14.5215 23.1788 14.3917 23.1803 14.259C23.1819 14.1264 23.1483 13.9957 23.0829 13.8803Z" fill="white"/>
</svg>
